<svg width="420" height="73" viewBox="0 0 420 73" fill="none" xmlns="http://www.w3.org/2000/svg">
<path d="M27.792 72.96C21.904 72.96 16.912 71.712 12.816 69.216C8.72 66.656 5.616 63.072 3.504 58.464C1.392 53.856 0.336 48.48 0.336 42.336V36.288C0.336 30.144 1.264 24.8 3.12 20.256C5.04 15.648 7.888 12.096 11.664 9.6C15.44 7.04 20.176 5.75999 25.872 5.75999C30.736 5.75999 34.8 6.72 38.064 8.64C41.328 10.496 43.728 12.992 45.264 16.128C46.864 19.2 47.536 22.56 47.28 26.208L36.048 28.992C36.688 22.592 36.016 17.696 34.032 14.304C32.112 10.848 29.232 9.12 25.392 9.12C21.296 9.12 18.128 10.848 15.888 14.304C13.712 17.76 12.624 23.488 12.624 31.488V47.136C12.624 55.072 13.872 60.8 16.368 64.32C18.864 67.84 22.672 69.6 27.792 69.6C29.904 69.6 31.856 69.216 33.648 68.448C35.504 67.68 37.04 66.368 38.256 64.512C39.536 62.592 40.336 59.904 40.656 56.448L47.568 58.272C46.672 61.856 45.232 64.736 43.248 66.912C41.264 69.088 38.928 70.656 36.24 71.616C33.616 72.512 30.8 72.96 27.792 72.96ZM109.361 69.312V72H83.5373V69.312L88.8173 68.64C89.8413 68.512 90.4493 68.256 90.6413 67.872C90.8333 67.424 90.9293 66.112 90.9293 63.936V39.744C90.9293 35.328 90.2573 32.128 88.9133 30.144C87.6333 28.096 85.7133 27.072 83.1533 27.072C82.0653 27.072 80.7853 27.36 79.3133 27.936C77.9053 28.448 76.4653 29.408 74.9933 30.816C73.5853 32.224 72.3373 34.304 71.2493 37.056V63.936C71.2493 66.112 71.3453 67.424 71.5373 67.872C71.7293 68.256 72.3373 68.512 73.3613 68.64L78.6413 69.312V72H52.8173V69.312L58.0973 68.64C59.1213 68.512 59.7293 68.256 59.9213 67.872C60.1133 67.424 60.2093 66.112 60.2093 63.936V9.024C60.2093 6.848 60.1133 5.568 59.9213 5.184C59.7293 4.736 59.1213 4.448 58.0973 4.32L52.8173 3.648V0.959999H71.2493V30.816C73.1053 27.872 75.4093 25.728 78.1613 24.384C80.9773 23.04 83.7933 22.368 86.6093 22.368C91.3453 22.368 95.0893 23.872 97.8413 26.88C100.593 29.888 101.969 34.144 101.969 39.648V63.936C101.969 66.112 102.065 67.424 102.257 67.872C102.449 68.256 103.057 68.512 104.081 68.64L109.361 69.312ZM155.942 60.576C154.79 65.056 152.646 68.256 149.51 70.176C146.374 72.032 142.726 72.96 138.566 72.96C130.886 72.96 125.126 70.752 121.286 66.336C117.446 61.856 115.526 55.936 115.526 48.576V46.656C115.526 39.296 117.318 33.408 120.902 28.992C124.55 24.576 129.798 22.368 136.646 22.368C140.486 22.368 143.878 23.136 146.822 24.672C149.83 26.144 152.166 28.288 153.83 31.104C155.558 33.92 156.422 37.344 156.422 41.376C156.422 42.336 156.358 43.36 156.23 44.448C156.166 45.536 156.006 46.624 155.75 47.712H127.334V50.496C127.334 57.28 128.294 62.176 130.214 65.184C132.134 68.128 135.238 69.6 139.526 69.6C142.278 69.6 144.614 68.8 146.534 67.2C148.454 65.536 149.542 62.752 149.798 58.848L155.942 60.576ZM136.646 25.728C133.51 25.728 131.174 27.168 129.638 30.048C128.102 32.928 127.334 37.696 127.334 44.352H144.71C144.966 43.072 145.126 41.888 145.19 40.8C145.318 39.648 145.382 38.592 145.382 37.632C145.382 33.536 144.582 30.528 142.982 28.608C141.382 26.688 139.27 25.728 136.646 25.728ZM187.266 25.728C184.194 25.728 181.89 27.2 180.354 30.144C178.882 33.024 178.146 37.888 178.146 44.736V50.496C178.146 57.28 179.01 62.176 180.738 65.184C182.466 68.128 185.282 69.6 189.186 69.6C192.066 69.6 194.402 68.8 196.194 67.2C198.05 65.536 199.106 62.752 199.362 58.848L205.506 60.576C204.354 65.056 202.242 68.256 199.17 70.176C196.162 72.032 192.61 72.96 188.514 72.96C181.154 72.96 175.618 70.752 171.906 66.336C168.194 61.856 166.338 55.936 166.338 48.576V46.656C166.338 39.296 168.13 33.408 171.714 28.992C175.298 24.576 180.482 22.368 187.266 22.368C191.746 22.368 195.394 23.264 198.21 25.056C201.09 26.784 203.106 29.088 204.258 31.968C205.474 34.784 205.794 37.824 205.218 41.088L194.658 42.624C195.362 37.248 195.074 33.088 193.794 30.144C192.514 27.2 190.338 25.728 187.266 25.728ZM211.067 3.648V0.959999H229.499V47.52L246.395 31.392C248.635 29.28 249.819 28 249.947 27.552C250.139 27.104 249.691 26.816 248.603 26.688L243.323 26.016V23.328H263.003V26.016L257.723 26.688C257.147 26.752 256.667 26.88 256.283 27.072C255.899 27.264 255.355 27.68 254.651 28.32C253.947 28.896 252.827 29.92 251.291 31.392L242.075 40.224L255.707 63.936C256.603 65.408 257.275 66.464 257.723 67.104C258.171 67.68 258.587 68.064 258.971 68.256C259.419 68.384 259.963 68.512 260.603 68.64L265.883 69.312V72H247.547L234.203 47.712L229.499 52.224V63.936C229.499 66.112 229.595 67.424 229.787 67.872C229.979 68.256 230.587 68.512 231.611 68.64L236.891 69.312V72H211.067V69.312L216.347 68.64C217.371 68.512 217.979 68.256 218.171 67.872C218.363 67.424 218.459 66.112 218.459 63.936V9.024C218.459 6.848 218.363 5.568 218.171 5.184C217.979 4.736 217.371 4.448 216.347 4.32L211.067 3.648ZM270.097 9.408V6.72H296.401V9.408L291.121 10.08C290.097 10.208 289.489 10.496 289.297 10.944C289.105 11.328 289.009 12.608 289.009 14.784V63.936C289.009 66.112 289.105 67.424 289.297 67.872C289.489 68.256 290.097 68.512 291.121 68.64L296.401 69.312V72H270.097V69.312L275.377 68.64C276.401 68.512 277.009 68.256 277.201 67.872C277.393 67.424 277.489 66.112 277.489 63.936V14.784C277.489 12.608 277.393 11.328 277.201 10.944C277.009 10.496 276.401 10.208 275.377 10.08L270.097 9.408ZM359.315 69.312V72H333.491V69.312L338.771 68.64C339.795 68.512 340.403 68.256 340.595 67.872C340.787 67.424 340.883 66.112 340.883 63.936V39.744C340.883 35.328 340.211 32.128 338.867 30.144C337.587 28.096 335.667 27.072 333.107 27.072C332.019 27.072 330.739 27.36 329.267 27.936C327.859 28.448 326.419 29.408 324.947 30.816C323.539 32.224 322.291 34.304 321.203 37.056V63.936C321.203 66.112 321.299 67.424 321.491 67.872C321.683 68.256 322.291 68.512 323.315 68.64L328.595 69.312V72H302.771V69.312L308.051 68.64C309.075 68.512 309.683 68.256 309.875 67.872C310.067 67.424 310.163 66.112 310.163 63.936V31.392C310.163 29.216 310.067 27.936 309.875 27.552C309.683 27.104 309.075 26.816 308.051 26.688L302.771 26.016V23.328H320.627V31.776C322.483 28.512 324.851 26.144 327.731 24.672C330.675 23.136 333.619 22.368 336.563 22.368C341.299 22.368 345.043 23.872 347.795 26.88C350.547 29.888 351.923 34.144 351.923 39.648V63.936C351.923 66.112 352.019 67.424 352.211 67.872C352.403 68.256 353.011 68.512 354.035 68.64L359.315 69.312ZM419.127 69.312V72H393.303V69.312L398.583 68.64C399.607 68.512 400.215 68.256 400.407 67.872C400.599 67.424 400.695 66.112 400.695 63.936V39.744C400.695 35.328 400.023 32.128 398.679 30.144C397.399 28.096 395.479 27.072 392.919 27.072C391.831 27.072 390.551 27.36 389.079 27.936C387.671 28.448 386.231 29.408 384.759 30.816C383.351 32.224 382.103 34.304 381.015 37.056V63.936C381.015 66.112 381.111 67.424 381.303 67.872C381.495 68.256 382.103 68.512 383.127 68.64L388.407 69.312V72H362.583V69.312L367.863 68.64C368.887 68.512 369.495 68.256 369.687 67.872C369.879 67.424 369.975 66.112 369.975 63.936V31.392C369.975 29.216 369.879 27.936 369.687 27.552C369.495 27.104 368.887 26.816 367.863 26.688L362.583 26.016V23.328H380.439V31.776C382.295 28.512 384.663 26.144 387.543 24.672C390.487 23.136 393.431 22.368 396.375 22.368C401.111 22.368 404.855 23.872 407.607 26.88C410.359 29.888 411.735 34.144 411.735 39.648V63.936C411.735 66.112 411.831 67.424 412.023 67.872C412.215 68.256 412.823 68.512 413.847 68.64L419.127 69.312Z" fill="white"/>
</svg>
